<svg xmlns="http://www.w3.org/2000/svg" viewBox="0 0 16 16" fill="none" shape-rendering="crispEdges"><metadata xmlns:rdf="http://www.w3.org/1999/02/22-rdf-syntax-ns#" xmlns:xsi="http://www.w3.org/2001/XMLSchema-instance" xmlns:dc="http://purl.org/dc/elements/1.1/" xmlns:dcterms="http://purl.org/dc/terms/"><rdf:RDF><rdf:Description><dc:title>Pixel Art</dc:title><dc:creator>DiceBear</dc:creator><dc:source xsi:type="dcterms:URI">https://www.figma.com/community/file/1198754108850888330</dc:source><dcterms:license xsi:type="dcterms:URI">https://creativecommons.org/publicdomain/zero/1.0/</dcterms:license><dc:rights>„Pixel Art” (https://www.figma.com/community/file/1198754108850888330) by „DiceBear”, licensed under „CC0 1.0” (https://creativecommons.org/publicdomain/zero/1.0/)</dc:rights></rdf:Description></rdf:RDF></metadata><mask id="viewboxMask"><rect width="16" height="16" rx="0" ry="0" x="0" y="0" fill="#fff" /></mask><g mask="url(#viewboxMask)"><path d="M4 2h8v1h1v3h1v2h-1v3h-1v1H9v1h4v1h1v2H2v-2h1v-1h4v-1H4v-1H3V8H2V6h1V3h1V2Z" fill="#ffdbac"/><path d="M4 2h8v1h1v3h1v2h-1v3h-1v1H4v-1H3V8H2V6h1V3h1V2Z" fill="#fff" fill-opacity=".1"/><path d="M10 13h3v1h1v2H2v-2h1v-1h3v1h4v-1Z" fill="#ff6f69"/><path fill="#fff" d="M12 5H9v3h3zM7 5H4v3h3z"/><path fill="#876658" d="M12 6h-2v1h2zM7 6H5v1h2z"/><path fill="#fff" fill-opacity=".7" d="M12 6h-1v1h1zM7 6H6v1h1z"/><path fill-rule="evenodd" clip-rule="evenodd" d="M14 5H2v1h1v2h4V7h2v1h4V6h1V5Zm-2 1H9v1h3V6ZM7 7H4V6h3v1Z" fill="#323232"/><path fill="#fff" fill-opacity=".3" d="M4 6h3v1H4z"/><path fill="#fff" fill-opacity=".2" d="M2 5h1v1H2zM7 5h2v1H7zM13 5h1v1h-1z"/><path fill="#fff" fill-opacity=".3" d="M9 6h3v1H9z"/><path d="M7 9v1h2v1h1v-1H9V9H7Z" fill="#de0f0d"/><path d="M4 2h8v1h1v2h1v7h-1v-1h-1V5h-1V4H5v1H4v6H3v1H2V5h1V3h1V2ZM2 12v1H1v-1h1ZM14 12h1v1h-1v-1Z" fill="#bd1700"/></g></svg>