<svg xmlns="http://www.w3.org/2000/svg" viewBox="0 0 16 16" fill="none" shape-rendering="crispEdges"><metadata xmlns:rdf="http://www.w3.org/1999/02/22-rdf-syntax-ns#" xmlns:xsi="http://www.w3.org/2001/XMLSchema-instance" xmlns:dc="http://purl.org/dc/elements/1.1/" xmlns:dcterms="http://purl.org/dc/terms/"><rdf:RDF><rdf:Description><dc:title>Pixel Art</dc:title><dc:creator>DiceBear</dc:creator><dc:source xsi:type="dcterms:URI">https://www.figma.com/community/file/1198754108850888330</dc:source><dcterms:license xsi:type="dcterms:URI">https://creativecommons.org/publicdomain/zero/1.0/</dcterms:license><dc:rights>„Pixel Art” (https://www.figma.com/community/file/1198754108850888330) by „DiceBear”, licensed under „CC0 1.0” (https://creativecommons.org/publicdomain/zero/1.0/)</dc:rights></rdf:Description></rdf:RDF></metadata><mask id="viewboxMask"><rect width="16" height="16" rx="0" ry="0" x="0" y="0" fill="#fff" /></mask><g mask="url(#viewboxMask)"><path d="M4 2h8v1h1v3h1v2h-1v3h-1v1H9v1h4v1h1v2H2v-2h1v-1h4v-1H4v-1H3V8H2V6h1V3h1V2Z" fill="#e0b687"/><path d="M4 2h8v1h1v3h1v2h-1v3h-1v1H4v-1H3V8H2V6h1V3h1V2Z" fill="#fff" fill-opacity=".1"/><path d="M4 13h1v1h6v-1h1v3H4v-3Z" fill="#ffd969"/><path fill="#fff" fill-opacity=".3" d="M9 15h2v1H9z"/><path fill="#fff" d="M4 5h3v3H4zM9 5h3v3H9z"/><path fill="#76778b" d="M10 5h2v2h-2zM5 5h2v2H5z"/><path fill="#fff" fill-opacity=".4" d="M5 5h1v1H5zM6 6h1v1H6zM10 5h1v1h-1zM11 6h1v1h-1z"/><path fill="#fff" fill-opacity=".7" d="M11 5h1v1h-1zM6 5h1v1H6z"/><path d="M10 11v-1H7V9H6v1h1v1h3Z" fill="#d29985"/><path d="M3 1h10v1h1v1h1v10h-1v-1h-1V8h1V6h-1V4h-1V3H5v1H4v1H3v1H2v2h1v4H2v1H1V3h1V2h1V1Z" fill="#cab188"/></g></svg>