<svg xmlns="http://www.w3.org/2000/svg" viewBox="0 0 16 16" fill="none" shape-rendering="crispEdges"><metadata xmlns:rdf="http://www.w3.org/1999/02/22-rdf-syntax-ns#" xmlns:xsi="http://www.w3.org/2001/XMLSchema-instance" xmlns:dc="http://purl.org/dc/elements/1.1/" xmlns:dcterms="http://purl.org/dc/terms/"><rdf:RDF><rdf:Description><dc:title>Pixel Art</dc:title><dc:creator>DiceBear</dc:creator><dc:source xsi:type="dcterms:URI">https://www.figma.com/community/file/1198754108850888330</dc:source><dcterms:license xsi:type="dcterms:URI">https://creativecommons.org/publicdomain/zero/1.0/</dcterms:license><dc:rights>„Pixel Art” (https://www.figma.com/community/file/1198754108850888330) by „DiceBear”, licensed under „CC0 1.0” (https://creativecommons.org/publicdomain/zero/1.0/)</dc:rights></rdf:Description></rdf:RDF></metadata><mask id="viewboxMask"><rect width="16" height="16" rx="0" ry="0" x="0" y="0" fill="#fff" /></mask><g mask="url(#viewboxMask)"><path d="M4 2h8v1h1v3h1v2h-1v3h-1v1H9v1h4v1h1v2H2v-2h1v-1h4v-1H4v-1H3V8H2V6h1V3h1V2Z" fill="#eac393"/><path d="M4 2h8v1h1v3h1v2h-1v3h-1v1H4v-1H3V8H2V6h1V3h1V2Z" fill="#fff" fill-opacity=".1"/><path d="M5 13H3v1H2v2h12v-2h-1v-1h-2v1h-1v1H6v-1H5v-1Z" fill="#44c585"/><path fill="#fff" d="M4 5h3v2H4z"/><path fill="#876658" d="M5 6h1v1H5z"/><path fill="#fff" d="M9 5h3v2H9z"/><path fill="#876658" d="M10 6h1v1h-1z"/><path d="M7 9v1h1v1h1V9H7Z" fill="#c98276"/><g fill="#009bbd"><path d="M4 2h8v1H4zM3 1h1v1H3zM2 2h1v1H2zM2 3h1v1H2zM2 4h1v1H2zM2 5h1v1H2zM1 3h1v1H1zM1 1h1v1H1zM1 5h1v1H1zM1 6h1v1H1zM0 7h1v1H0zM1 8h1v1H1zM5 1h1v1H5zM6 0h1v1H6zM4 0h1v1H4zM6 1h1v1H6zM7 1h1v1H7zM8 0h1v1H8zM9 1h1v1H9zM9 0h1v1H9zM11 0h1v1h-1zM10 1h1v1h-1zM12 1h1v1h-1zM13 2h1v1h-1zM13 3h1v1h-1zM13 4h1v1h-1zM13 5h1v1h-1zM14 6h1v1h-1zM15 4h1v1h-1z"/><path d="M15 4h1v1h-1zM14 3h1v1h-1zM14 8h1v1h-1zM15 6h1v1h-1zM15 7h1v1h-1zM13 2h1v1h-1zM2 2h1v1H2zM3 1h1v1H3z"/></g><path d="M13 0H3v3H1v1h14V3h-2V0Z" fill="#3d8a6b"/><path fill="#fff" fill-opacity=".3" d="M11 1h1v3h-1z"/></g></svg>